<?xml version="1.0" standalone="no"?>
<!DOCTYPE svg PUBLIC "-//W3C//DTD SVG 20010904//EN"
 "http://www.w3.org/TR/2001/REC-SVG-20010904/DTD/svg10.dtd">
<svg version="1.0" xmlns="http://www.w3.org/2000/svg"
 width="900.000000pt" height="660.000000pt" viewBox="0 0 900.000000 660.000000"
 preserveAspectRatio="xMidYMid meet">

<g transform="translate(0.000000,660.000000) scale(0.100000,-0.100000)"
fill="#000000" stroke="none">
<path d="M4125 6580 c-480 -36 -908 -118 -1330 -257 -199 -65 -397 -144 -526
-208 l-91 -46 6 -47 c3 -26 8 -87 11 -137 3 -49 19 -274 36 -500 126 -1731
258 -2902 361 -3210 50 -149 146 -293 321 -480 l105 -111 -96 -48 c-54 -27
-214 -114 -357 -193 -307 -172 -490 -265 -613 -314 l-23 -9 6 112 c8 122 -5
239 -31 290 -21 41 -75 62 -139 54 -171 -20 -280 -130 -320 -324 l-16 -73 37
-92 c55 -139 149 -316 204 -384 76 -94 104 -107 236 -111 172 -6 202 4 346
110 343 253 720 480 992 599 128 55 172 64 189 38 9 -14 -3 -33 -59 -104 l-69
-87 28 -276 c15 -152 29 -282 32 -289 7 -20 187 -133 300 -188 479 -232 1002
-256 1527 -68 56 20 175 73 263 117 l160 81 27 255 c14 140 29 269 31 285 4
24 -9 53 -59 138 -35 60 -64 112 -64 117 0 5 14 19 31 31 l31 22 82 -33 c281
-114 734 -384 1071 -639 69 -52 115 -79 149 -88 59 -15 226 -17 277 -3 107 30
218 186 334 468 43 107 45 116 36 165 -38 208 -158 327 -334 330 -81 2 -104
-9 -133 -65 -19 -37 -32 -166 -26 -275 3 -60 1 -93 -6 -93 -14 0 -151 59 -232
100 -36 18 -211 114 -389 212 -179 99 -353 194 -388 211 l-63 31 89 91 c157
160 266 331 335 524 102 284 218 1251 321 2681 25 345 75 1123 75 1161 0 23
-61 53 -288 143 -494 196 -997 317 -1532 371 -184 19 -694 27 -865 15z m804
-176 c534 -47 1115 -197 1601 -413 l105 -46 -3 -70 c-6 -140 -42 -689 -45
-692 -2 -2 -44 15 -94 36 -932 404 -1975 512 -2988 310 -353 -71 -699 -178
-989 -305 -55 -24 -101 -42 -103 -40 -4 4 -53 675 -53 726 l0 37 118 56 c392
188 933 334 1452 393 315 35 663 38 999 8z m-199 -824 c624 -30 1207 -166
1766 -411 l92 -40 -4 -37 c-2 -20 -11 -140 -19 -267 -74 -1088 -183 -2062
-270 -2406 -59 -236 -179 -431 -397 -646 l-93 -93 -115 41 c-134 47 -265 78
-332 79 -34 0 -48 4 -48 14 0 7 -7 19 -15 26 -20 16 -19 47 1 68 12 12 15 29
12 70 l-5 54 46 -5 c25 -3 74 -11 109 -18 34 -6 66 -9 69 -5 16 16 -23 60 -60
69 -38 9 -46 24 -25 45 9 9 9 15 0 24 -25 25 -13 49 36 69 84 35 131 61 136
76 5 12 -2 14 -39 11 -25 -2 -45 0 -45 3 0 4 25 21 55 40 30 18 68 52 85 75
46 65 38 81 -22 44 -22 -13 -50 -20 -83 -19 l-50 0 50 23 c66 31 84 53 106
133 21 75 24 97 8 70 -10 -17 -45 -39 -93 -57 l-25 -9 20 33 c25 44 41 232 18
224 -8 -2 -25 -23 -37 -47 -25 -44 -51 -65 -92 -74 -36 -9 -50 4 -64 59 -15
61 -30 65 -117 30 -93 -38 -93 -38 -87 45 3 39 10 75 15 80 6 6 29 1 64 -15
93 -41 158 -51 241 -37 172 28 256 103 319 284 33 94 39 200 14 233 -14 18
-14 18 -15 -7 0 -28 -43 -121 -65 -139 -10 -9 -28 20 -89 147 l-77 157 22 51
c29 68 35 179 15 275 -14 66 -37 112 -50 99 -3 -3 0 -24 6 -48 8 -31 8 -56 -1
-94 -16 -71 -58 -160 -73 -155 -27 9 -76 98 -92 168 -38 172 -13 220 183 352
110 74 134 109 135 197 0 42 -7 72 -29 120 l-30 63 0 -75 c0 -61 -4 -79 -20
-97 -21 -23 -94 -64 -101 -57 -2 2 5 24 15 48 33 73 35 116 12 222 -12 53 -21
119 -21 146 0 45 4 54 51 105 36 40 62 59 92 67 30 8 37 13 26 20 -43 27 -171
-4 -254 -61 -67 -46 -79 -81 -83 -249 l-4 -143 -46 45 c-26 25 -67 55 -91 67
l-45 22 19 -28 c89 -136 100 -225 58 -507 -20 -142 -14 -253 19 -333 14 -34
57 -120 96 -191 40 -71 72 -135 72 -141 0 -20 -63 -14 -109 11 -34 17 -54 38
-85 91 -23 38 -46 69 -51 70 -20 2 -16 -75 5 -119 37 -77 172 -184 282 -225
48 -18 62 -29 83 -64 17 -29 25 -58 25 -88 0 -39 -5 -50 -30 -72 -37 -30 -85
-41 -148 -32 -155 21 -310 178 -429 435 -112 242 -141 291 -174 291 -18 0 -22
-10 -53 -122 -18 -62 -87 -149 -151 -188 l-34 -21 48 -62 c112 -144 115 -182
25 -387 l-59 -135 0 -217 c0 -208 -1 -217 -22 -245 -78 -100 -95 -131 -95
-176 0 -25 5 -53 10 -62 8 -15 12 -12 30 17 22 35 137 107 149 94 4 -3 1 -23
-6 -44 -7 -20 -16 -49 -21 -64 l-9 -28 39 20 c74 38 144 143 159 239 4 28 11
54 14 58 4 3 20 0 37 -7 42 -18 88 -8 187 41 l86 41 18 -23 c10 -13 26 -43 35
-66 20 -51 8 -96 -39 -149 -60 -70 -126 -84 -155 -34 -23 40 -35 43 -74 15
-18 -13 -54 -36 -80 -50 -43 -23 -48 -29 -48 -60 0 -40 -2 -39 37 -20 38 19
59 12 71 -25 9 -24 7 -31 -15 -52 -20 -19 -24 -29 -19 -58 3 -22 0 -40 -8 -50
-19 -21 -31 -96 -17 -105 19 -11 46 4 64 35 17 27 22 30 57 24 35 -6 40 -4 54
25 9 17 21 31 26 31 5 0 21 -15 35 -34 15 -19 36 -36 47 -38 12 -2 24 -10 28
-18 4 -8 12 -25 18 -36 10 -20 8 -22 -41 -27 -46 -4 -56 -9 -92 -51 -58 -65
-130 -188 -175 -297 -32 -77 -37 -97 -27 -111 7 -9 49 -62 94 -117 l83 -100
-154 -105 c-212 -145 -383 -246 -414 -246 -35 0 -572 330 -572 351 0 4 40 56
90 115 74 89 89 113 85 134 -11 51 -125 267 -177 335 -64 84 -80 89 -253 81
-124 -5 -246 -32 -398 -89 l-68 -25 -117 117 c-187 185 -306 355 -357 506 -86
258 -206 1301 -313 2719 -9 129 -25 112 177 196 519 217 1158 353 1756 373 44
2 100 4 125 5 25 1 137 -3 250 -8z m740 -3826 c224 -44 456 -150 995 -451 567
-318 795 -396 975 -333 30 10 56 18 57 17 1 -1 -23 -53 -52 -115 -95 -199
-182 -309 -262 -331 -50 -14 -207 -14 -258 0 -22 6 -102 57 -180 113 -675 492
-1247 757 -1634 756 -47 0 -106 -5 -130 -11 -24 -5 -46 -8 -48 -5 -16 16 156
318 204 358 36 29 188 30 333 2z m-1633 -2 c34 -10 106 -113 174 -246 33 -65
58 -121 55 -123 -2 -2 -21 0 -43 6 -103 29 -319 5 -508 -56 -378 -122 -789
-347 -1256 -688 -71 -52 -139 -100 -151 -106 -32 -17 -243 -24 -295 -10 -71
19 -149 116 -238 294 -42 83 -74 152 -72 154 2 2 19 -5 38 -14 42 -22 172 -29
251 -14 142 26 355 125 787 365 621 346 874 445 1136 444 55 0 110 -3 122 -6z
m-1937 -411 c12 -62 13 -136 3 -245 -6 -75 -7 -78 -37 -93 -31 -15 -33 -14
-75 25 -24 22 -60 56 -82 76 -61 57 -51 86 37 100 90 15 139 76 132 162 -4 57
9 42 22 -25z m5223 22 c-7 -87 50 -155 142 -169 80 -11 83 -54 9 -111 -21 -15
-51 -41 -67 -56 -27 -25 -32 -27 -63 -17 -18 6 -36 20 -40 32 -12 39 -9 292 5
331 7 20 14 37 15 37 2 0 1 -21 -1 -47z m-3648 -466 c212 -162 495 -282 757
-321 199 -30 459 -16 659 34 200 51 468 168 653 284 49 31 90 55 92 54 3 -4
-45 -478 -51 -495 -8 -23 -321 -170 -461 -216 -425 -138 -816 -141 -1213 -8
-188 63 -398 170 -488 248 l-33 28 -20 205 c-11 113 -22 225 -26 249 l-6 45
34 -27 c18 -15 65 -51 103 -80z m518 -56 c94 -64 213 -139 262 -166 50 -27
104 -57 120 -67 l30 -19 -75 6 c-172 15 -372 69 -537 145 -139 64 -135 54 -57
149 36 44 70 78 75 75 5 -3 87 -58 182 -123z m1265 54 c34 -41 62 -78 62 -83
0 -10 -120 -67 -226 -107 -99 -38 -320 -93 -400 -101 l-69 -6 75 45 c41 25
167 108 280 185 113 77 207 140 210 141 3 1 33 -33 68 -74z"/>
<path d="M4349 6161 c-21 -22 -29 -39 -29 -65 0 -47 27 -73 85 -81 71 -11 93
-45 59 -93 -31 -44 -124 -20 -124 32 0 9 -4 14 -10 11 -5 -3 -10 -22 -10 -40
0 -29 4 -36 28 -42 74 -19 143 1 168 49 34 65 1 120 -78 132 -54 8 -71 24 -66
63 6 55 105 57 118 3 5 -22 7 -23 13 -7 20 53 5 67 -75 67 -41 0 -54 -5 -79
-29z"/>
<path d="M4580 6181 c0 -6 7 -11 15 -11 17 0 17 1 15 -145 -1 -60 -6 -114 -11
-119 -20 -21 -6 -26 70 -26 70 0 83 3 109 25 52 43 50 118 -3 131 -30 7 -33
20 -5 27 42 11 52 96 13 112 -33 13 -203 19 -203 6z m162 -34 c23 -36 -2 -87
-42 -87 -29 0 -30 1 -30 48 0 27 3 52 7 56 10 10 56 -3 65 -17z m-21 -118 c28
-15 41 -53 28 -86 -12 -32 -26 -43 -56 -43 -22 0 -23 4 -23 70 0 75 7 83 51
59z"/>
<path d="M4108 6173 c-38 -2 -68 -8 -68 -13 0 -6 7 -10 15 -10 19 0 22 -20 29
-152 4 -66 2 -109 -4 -113 -24 -15 -4 -20 72 -17 119 4 123 5 125 47 2 38 -14
49 -19 13 -2 -18 -12 -25 -45 -32 -65 -13 -73 -6 -73 64 l0 60 40 0 c33 0 40
-3 40 -20 0 -11 5 -20 10 -20 11 0 11 28 1 75 -6 28 -7 28 -13 8 -5 -18 -13
-23 -41 -23 -32 0 -35 3 -41 38 -11 71 -11 72 44 72 36 0 52 -5 59 -17 9 -15
10 -12 11 15 0 31 -1 32 -37 30 -21 -1 -68 -3 -105 -5z"/>
<path d="M4888 6160 c23 -10 23 -13 18 -87 -13 -161 -17 -183 -32 -183 -8 0
-14 -4 -14 -10 0 -5 13 -10 29 -10 16 0 43 -3 60 -6 20 -4 31 -3 31 5 0 6 -7
11 -16 11 -14 0 -15 13 -9 108 9 157 11 165 43 157 37 -9 52 -24 52 -50 0 -38
-11 -56 -41 -69 l-27 -11 41 -80 c40 -77 43 -80 81 -83 l38 -3 -25 33 c-33 44
-80 138 -69 138 22 0 62 51 62 78 0 51 -27 65 -142 69 -76 2 -97 1 -80 -7z"/>
<path d="M3817 6140 c-49 -9 -75 -20 -44 -20 8 0 18 -8 21 -17 12 -42 28 -199
23 -234 l-5 -39 36 5 c21 3 64 9 97 13 l60 7 2 40 c2 38 2 38 -8 13 -10 -26
-28 -34 -99 -41 -11 -2 -18 17 -27 78 -17 117 -17 185 2 185 8 0 15 5 15 10 0
11 -4 11 -73 0z"/>
<path d="M5259 6097 c-51 -34 -71 -80 -67 -154 3 -53 8 -67 33 -93 48 -50 134
-64 195 -31 50 26 80 83 80 153 0 50 -4 62 -31 92 -51 58 -149 74 -210 33z
m155 -26 c45 -46 26 -201 -30 -238 -37 -24 -90 -10 -114 30 -38 62 -20 184 31
221 30 21 85 15 113 -13z"/>
<path d="M3483 6081 c-80 -16 -117 -31 -76 -31 19 0 23 -11 39 -97 10 -54 18
-117 18 -141 l1 -43 35 6 c110 19 143 29 171 53 57 47 74 125 44 200 -29 72
-79 84 -232 53z m138 -24 c28 -21 49 -74 49 -122 0 -79 -27 -111 -111 -130
-25 -6 -28 -4 -37 42 -29 136 -35 205 -21 214 20 13 101 10 120 -4z"/>
<path d="M5580 6062 c0 -6 6 -12 12 -14 10 -4 8 -31 -9 -118 -19 -94 -20 -118
-10 -139 17 -36 69 -63 124 -64 66 -1 94 33 117 144 21 98 31 119 54 120 14 0
13 2 -3 8 -11 5 -36 11 -55 15 -31 6 -33 5 -17 -7 9 -8 17 -25 17 -38 0 -35
-38 -180 -51 -196 -19 -22 -84 -16 -115 10 l-27 24 17 88 c22 110 31 135 51
135 30 0 5 17 -34 24 -22 3 -46 9 -55 12 -9 3 -16 2 -16 -4z"/>
<path d="M3123 5992 c-51 -14 -93 -29 -93 -34 0 -5 8 -8 18 -6 14 2 22 -16 45
-107 15 -60 25 -124 23 -141 l-4 -30 82 21 c46 12 97 31 113 43 83 59 84 218
3 266 -37 21 -77 19 -187 -12z m147 -30 c47 -47 60 -134 29 -193 -10 -19 -69
-49 -97 -49 -17 0 -24 16 -47 109 -15 60 -25 117 -23 127 3 19 34 31 81 33 19
1 38 -9 57 -27z"/>
<path d="M2930 5933 c-79 -26 -77 -24 -53 -33 16 -7 28 -29 46 -92 47 -154 47
-157 29 -167 -32 -18 -7 -20 51 -4 55 16 76 33 39 33 -14 0 -25 23 -50 109
-35 120 -38 147 -19 154 6 2 10 7 7 9 -3 3 -25 -1 -50 -9z"/>
<path d="M5980 5933 c-43 -16 -87 -77 -90 -128 -5 -72 0 -88 43 -130 32 -33
54 -45 95 -54 90 -19 100 -16 113 29 7 22 16 40 21 40 23 0 3 18 -33 29 -23 7
-48 15 -58 18 -10 3 -8 -2 7 -14 20 -16 21 -22 11 -51 -8 -24 -17 -32 -36 -32
-40 0 -81 31 -98 74 -21 52 -6 123 36 167 27 29 33 31 80 27 57 -6 96 -35 101
-77 l3 -26 17 31 c16 30 16 32 -1 48 -44 40 -162 67 -211 49z"/>
<path d="M2748 5872 c-35 -16 -38 -20 -38 -57 0 -22 -3 -77 -7 -123 l-6 -83
-51 48 c-28 27 -67 63 -88 82 l-36 33 -46 -17 c-45 -17 -52 -30 -18 -30 11 0
29 -34 61 -113 39 -98 43 -116 32 -134 -7 -11 -11 -21 -9 -23 2 -1 23 7 48 18
42 19 43 21 20 27 -20 5 -32 23 -62 95 -20 50 -37 94 -37 99 -1 4 43 -33 98
-83 54 -50 101 -91 105 -91 3 0 6 42 7 93 0 50 4 112 7 136 l7 45 38 -99 c35
-92 36 -99 21 -117 -22 -24 -11 -23 53 4 51 21 72 42 36 36 -13 -2 -27 21 -59
102 -43 105 -53 150 -34 150 6 0 10 5 10 10 0 13 -7 12 -52 -8z"/>
<path d="M6280 5854 c0 -2 5 -12 11 -22 15 -25 -69 -248 -94 -246 -33 3 -17
-12 36 -34 63 -27 75 -28 54 -4 -14 15 -14 22 4 72 10 30 19 55 19 57 0 4 115
-40 124 -48 5 -4 -1 -32 -14 -63 -17 -43 -27 -56 -43 -56 -29 0 -12 -13 51
-38 56 -22 58 -22 40 7 -10 16 -4 39 31 135 36 97 47 116 65 117 13 0 -1 11
-39 28 -33 16 -61 27 -63 26 -2 -2 2 -12 9 -23 10 -16 10 -28 -1 -62 -7 -22
-17 -43 -21 -46 -6 -4 -116 39 -126 50 -2 2 5 24 16 50 16 35 26 46 43 46 12
0 18 4 13 8 -13 11 -115 52 -115 46z"/>
<path d="M4975 5361 c-37 -16 -89 -65 -125 -117 -13 -19 -27 -22 -111 -26 -93
-4 -98 -5 -211 -62 -137 -69 -187 -79 -249 -47 -38 20 -43 21 -65 6 -14 -9
-24 -25 -24 -38 0 -29 86 -238 102 -249 18 -11 22 -10 128 17 71 18 96 21 102
12 4 -7 6 -16 5 -21 -6 -17 -134 -66 -206 -78 -96 -16 -113 -8 -155 84 -56
124 -106 153 -176 106 -50 -35 -76 -74 -61 -92 11 -13 19 -10 57 20 70 53 78
49 127 -58 37 -81 76 -118 125 -118 50 0 62 -16 62 -82 0 -51 -5 -69 -26 -100
-15 -21 -25 -41 -22 -44 3 -2 21 -7 39 -10 28 -5 42 0 79 30 25 20 48 36 53
36 4 0 7 -16 7 -35 0 -41 7 -42 61 -14 46 23 56 20 40 -9 -15 -28 -60 -40
-181 -45 -163 -8 -198 -19 -288 -90 -76 -60 -107 -77 -205 -113 -53 -19 -101
-58 -94 -77 3 -8 23 -11 63 -9 l59 3 -57 -58 c-51 -53 -88 -115 -88 -149 0
-10 11 -8 48 8 51 22 90 24 220 13 l82 -8 -44 -47 c-48 -52 -89 -125 -101
-180 l-7 -35 28 26 c16 15 43 33 59 41 50 25 256 91 262 84 4 -3 -6 -44 -22
-91 -21 -65 -27 -96 -22 -132 4 -35 0 -59 -13 -88 -11 -22 -19 -48 -20 -59 0
-16 5 -18 45 -13 88 13 205 89 256 168 23 36 34 47 40 37 22 -34 -6 -127 -57
-186 -18 -22 -34 -43 -34 -47 0 -12 87 3 123 21 58 30 128 88 157 132 19 29
38 82 55 158 15 63 29 114 31 114 2 0 37 -21 79 -46 88 -54 110 -80 100 -124
-6 -27 -4 -30 18 -30 40 0 90 41 120 99 43 85 38 118 -38 266 -53 103 -65 135
-65 173 0 68 9 95 29 86 51 -21 85 -17 141 17 l35 22 -34 11 c-55 18 -76 56
-76 134 1 96 16 216 29 224 6 4 24 8 39 8 65 0 117 40 132 101 6 23 4 25 -28
25 -45 0 -85 27 -104 71 -22 54 -5 86 62 113 64 26 99 61 120 119 8 24 15 45
15 47 0 3 -18 -5 -39 -16 -22 -11 -71 -25 -109 -32 -63 -11 -73 -10 -98 7
l-28 18 55 27 c30 16 65 39 78 53 l23 25 -68 -1 c-63 -1 -169 9 -203 19 -9 3
1 20 33 54 25 27 46 52 46 55 0 12 -78 3 -115 -14z"/>
<path d="M3493 5183 c-20 -13 -23 -25 -23 -74 0 -33 -3 -59 -7 -59 -3 0 -30
14 -60 30 -29 17 -54 30 -56 30 -2 0 -9 -17 -16 -38 l-13 -39 -38 11 c-29 7
-42 7 -54 -3 -29 -24 -19 -41 24 -41 l40 0 -6 -40 c-6 -36 -4 -40 20 -50 15
-5 38 -10 51 -10 43 0 39 -21 -14 -67 -38 -33 -50 -50 -46 -64 5 -13 -4 -25
-34 -45 -28 -18 -41 -34 -41 -50 0 -33 18 -39 44 -15 12 12 31 21 41 21 10 0
23 7 29 15 10 13 14 13 40 0 15 -8 38 -12 51 -9 15 4 24 0 29 -12 8 -21 10
-20 -60 -47 -39 -15 -64 -32 -74 -50 -18 -32 -10 -41 23 -26 23 10 37 6 122
-36 53 -27 99 -55 102 -62 3 -8 -3 -23 -13 -34 -16 -17 -28 -20 -67 -16 -52 5
-63 -3 -47 -32 18 -35 135 -54 194 -31 34 12 33 2 -4 -48 -16 -22 -32 -53 -36
-68 -6 -24 -5 -26 17 -21 13 3 78 16 145 30 67 14 136 33 155 42 45 23 139 93
139 104 0 10 -169 154 -314 268 -50 40 -97 82 -103 95 -7 13 -13 52 -13 88 0
82 17 110 66 110 38 0 74 29 74 60 0 11 11 27 24 35 30 20 44 91 23 113 -13
12 -17 8 -33 -25 -20 -39 -23 -40 -60 -29 -15 5 -31 -1 -53 -20 -39 -32 -47
-27 -31 21 14 43 6 57 -51 86 -45 23 -57 23 -86 2z"/>
<path d="M3241 3926 c-9 -11 -8 -15 4 -20 8 -3 20 -17 26 -30 10 -22 8 -29
-16 -57 -19 -23 -26 -41 -23 -60 l4 -28 -56 6 c-52 5 -57 4 -72 -20 -12 -18
-23 -23 -40 -20 -27 5 -88 -44 -88 -71 0 -18 45 -23 55 -6 12 19 54 10 71 -15
15 -23 20 -24 73 -19 l56 6 -43 -37 c-66 -58 -75 -80 -55 -151 15 -55 46 -104
65 -104 4 0 8 7 8 15 0 29 22 61 49 72 21 7 32 22 43 54 13 38 18 44 43 44 27
0 30 -4 39 -55 11 -57 23 -65 69 -45 13 5 17 2 17 -14 0 -23 33 -61 53 -61 6
0 18 4 25 9 14 9 6 32 -26 72 -11 15 -8 20 23 39 34 21 36 26 30 56 -3 19 -2
34 3 34 10 0 56 -32 142 -97 51 -39 107 -46 158 -21 32 16 28 24 -20 40 -36
11 -44 18 -46 42 -5 40 6 76 23 76 7 0 28 -20 46 -45 35 -49 71 -65 147 -65
47 0 55 15 22 45 -17 16 -20 26 -14 64 6 46 28 81 48 81 6 0 29 -14 50 -30 57
-43 71 -40 73 17 3 59 -14 80 -73 89 -35 5 -50 2 -79 -16 -19 -12 -35 -25 -35
-28 0 -13 -66 -52 -87 -52 -26 0 -33 18 -33 80 0 54 12 88 47 136 31 42 29 52
-11 60 -43 8 -74 -3 -254 -83 -95 -43 -162 -66 -197 -70 l-54 -6 -3 54 c-3 50
-5 55 -37 71 -18 9 -43 25 -55 36 -23 22 -60 42 -74 42 -5 0 -15 -6 -21 -14z"/>
<path d="M4213 3321 c-90 -23 -183 -107 -215 -194 -25 -70 -49 -84 -115 -68
-79 20 -123 -24 -123 -121 l0 -43 26 33 c36 46 71 44 113 -8 26 -32 38 -40 65
-40 45 0 57 -18 66 -101 9 -78 0 -123 -31 -162 -23 -30 -170 -107 -204 -107
-33 0 -55 31 -55 78 0 48 -25 72 -77 72 -22 0 -33 6 -38 19 -6 19 -33 31 -72
31 -28 0 -28 3 -3 -56 l20 -47 -21 -15 c-18 -12 -21 -22 -17 -61 5 -46 4 -47
-22 -43 -22 3 -30 -2 -43 -31 -14 -28 -21 -33 -40 -30 -18 4 -31 -4 -50 -27
-26 -31 -35 -60 -19 -60 5 0 30 6 55 14 45 13 47 13 47 -5 0 -29 21 -32 81
-15 29 9 54 16 56 16 2 0 -6 -13 -18 -29 -17 -23 -20 -38 -16 -65 3 -20 2 -36
-3 -36 -5 0 -14 -10 -21 -21 -12 -24 3 -99 21 -99 5 0 23 20 40 45 31 45 45
54 52 34 8 -25 49 4 72 50 44 87 78 89 74 5 -3 -49 -3 -49 30 -52 23 -2 32 -8
32 -21 0 -25 32 -51 63 -51 23 0 25 2 17 29 -9 33 -2 48 31 65 25 12 27 27 14
92 -6 26 -3 35 16 48 35 24 59 21 59 -9 0 -38 25 -90 51 -109 13 -9 40 -16 61
-16 l37 0 -24 25 c-25 24 -29 43 -19 82 6 22 6 22 30 -6 32 -38 100 -57 148
-41 20 6 38 15 41 20 3 4 -11 24 -30 43 -48 48 -47 74 3 74 44 0 87 20 121 57
l24 26 -32 0 c-36 0 -81 37 -81 67 0 33 30 63 75 74 24 6 50 18 58 28 31 36
29 101 -3 81 -25 -16 -50 -11 -75 15 -33 32 -32 72 3 123 39 58 85 89 145 97
72 10 101 42 116 126 21 121 11 179 -30 179 -12 0 -46 -7 -76 -16 -65 -19 -99
-14 -185 26 -67 31 -153 44 -205 31z"/>
<path d="M5793 1514 c-65 -33 -90 -136 -48 -200 21 -33 87 -64 132 -63 l38 0
-43 14 c-53 16 -71 31 -89 73 -29 70 26 162 97 162 49 0 94 -34 87 -66 -5 -28
1 -30 19 -6 22 28 16 40 -29 67 -57 33 -122 41 -164 19z"/>
<path d="M6061 1431 c10 -15 3 -34 -40 -115 -29 -53 -58 -96 -64 -96 -7 0 24
-21 68 -45 l80 -45 18 21 c23 28 22 46 -2 25 -18 -16 -21 -16 -60 4 l-42 21
52 100 c43 83 54 99 70 94 36 -12 19 5 -31 30 -59 30 -64 31 -49 6z"/>
<path d="M6278 1327 c12 -14 7 -28 -38 -105 -60 -105 -60 -128 3 -173 41 -30
84 -37 116 -19 10 5 39 43 65 84 32 51 54 76 69 78 19 3 18 6 -16 26 -46 27
-50 27 -35 3 10 -16 4 -30 -36 -94 -26 -42 -55 -78 -65 -82 -44 -14 -109 42
-95 81 4 10 25 50 48 87 30 50 46 66 59 63 30 -7 18 8 -26 34 -56 33 -64 36
-49 17z"/>
<path d="M6555 1150 c5 -15 -10 -43 -60 -110 -37 -50 -72 -90 -78 -90 -6 0 14
-18 43 -40 63 -47 116 -54 150 -20 24 24 25 48 4 79 -16 22 -16 23 5 16 49
-15 90 24 70 67 -15 32 -143 125 -134 98z m81 -71 c32 -35 -14 -82 -61 -61
l-26 12 27 35 c31 41 35 42 60 14z m-68 -81 c17 -17 15 -58 -5 -80 -18 -20
-45 -23 -73 -8 -18 10 -18 13 12 55 33 47 46 53 66 33z"/>
<path d="M3655 1691 c-38 -5 -45 -8 -27 -13 16 -4 22 -14 23 -35 0 -15 4 -64
8 -108 5 -54 4 -85 -3 -94 -9 -12 -3 -13 38 -8 27 4 68 7 92 7 l44 0 -1 38
c-1 32 -2 33 -8 12 -6 -20 -15 -26 -51 -31 -25 -4 -47 -5 -49 -3 -4 4 -20 146
-20 192 -1 22 4 32 14 32 8 0 15 5 15 10 0 6 -6 9 -12 8 -7 0 -35 -4 -63 -7z"/>
<path d="M3400 1634 c-25 -7 -47 -13 -50 -14 -3 -1 5 -5 16 -10 18 -7 27 -29
47 -112 19 -78 22 -106 13 -117 -9 -12 -7 -13 9 -7 11 4 52 14 92 23 65 14 73
19 73 39 0 13 -4 26 -10 29 -5 3 -10 -3 -10 -14 0 -15 -10 -23 -40 -31 -22 -6
-44 -9 -48 -6 -5 3 -19 51 -32 107 -18 77 -21 104 -12 107 13 4 17 23 5 21 -5
-1 -28 -7 -53 -15z"/>
<path d="M3157 1553 c-4 -3 -7 -63 -7 -133 0 -84 -4 -130 -12 -138 -20 -20 -5
-20 37 -1 31 14 35 18 18 18 -19 1 -23 7 -23 34 0 29 4 34 45 48 43 16 45 16
66 -7 18 -19 20 -26 9 -39 -17 -20 -4 -18 55 10 34 16 43 24 29 24 -14 1 -53
36 -109 96 -86 94 -95 101 -108 88z m76 -142 c-1 -2 -15 -10 -32 -17 l-31 -13
0 57 0 57 33 -40 c17 -22 31 -41 30 -44z"/>
<path d="M2873 1421 c-46 -21 -80 -41 -77 -44 3 -3 12 -3 19 0 10 3 29 -26 59
-90 25 -52 46 -102 46 -111 0 -9 2 -16 5 -16 17 0 113 55 127 74 38 46 11 116
-45 116 -24 0 -28 3 -19 12 20 20 15 76 -7 88 -25 13 -13 16 -108 -29z m75
-13 c19 -19 14 -56 -10 -72 -22 -15 -23 -15 -41 20 -10 20 -16 42 -13 50 7 17
48 18 64 2z m67 -118 c17 -33 9 -62 -23 -79 -16 -8 -22 -2 -45 44 -28 57 -26
63 25 64 21 1 31 -6 43 -29z"/>
<path d="M2649 1301 l-97 -57 14 -27 c18 -33 28 -35 20 -4 -4 18 1 27 23 40
34 20 29 24 95 -91 39 -67 46 -85 36 -97 -17 -21 -9 -19 46 13 41 22 45 28 27
30 -17 2 -36 28 -74 94 l-51 91 23 18 c30 23 45 24 53 3 4 -9 9 -15 12 -12 6
7 -17 58 -25 57 -3 -1 -49 -27 -102 -58z"/>
<path d="M2405 1151 c-93 -57 -106 -152 -30 -228 28 -28 40 -33 82 -33 59 0
112 33 137 83 20 44 20 70 0 113 -37 79 -121 107 -189 65z m85 -27 c36 -22 80
-91 80 -126 0 -38 -40 -78 -79 -78 -37 0 -85 39 -111 91 -27 51 -25 65 9 100
33 33 60 36 101 13z"/>
<path d="M2165 966 c-48 -21 -86 -69 -92 -114 -10 -73 63 -162 133 -162 34 0
103 42 124 74 26 43 25 99 -2 148 -36 64 -96 84 -163 54z m71 -35 c61 -37 98
-135 65 -174 -7 -9 -25 -20 -40 -25 -42 -15 -85 9 -121 64 -43 68 -38 111 15
142 28 16 46 15 81 -7z"/>
<path d="M1945 846 c-52 -20 -73 -32 -59 -34 17 -2 29 -23 58 -97 39 -103 42
-121 24 -128 -7 -2 -11 -7 -8 -9 3 -3 29 4 59 15 44 17 50 22 34 28 -11 4 -28
27 -37 50 -17 41 -17 44 0 56 22 16 36 16 53 1 11 -11 12 -8 6 12 -4 14 -11
32 -16 40 -7 13 -8 12 -9 -3 0 -14 -35 -37 -56 -37 -8 0 -34 74 -30 86 7 19
67 29 78 13 6 -10 8 -7 6 10 -2 14 -7 25 -13 27 -5 1 -46 -12 -90 -30z"/>
<path d="M4908 551 c-63 -40 -93 -102 -85 -181 6 -65 27 -104 68 -126 37 -19
65 -17 117 6 104 47 85 200 -25 200 -25 0 -43 -8 -64 -29 -34 -34 -43 -26 -35
32 8 53 30 81 81 106 36 18 37 20 14 21 -14 0 -46 -13 -71 -29z m86 -170 c26
-28 32 -84 11 -104 -22 -22 -58 -22 -79 2 -23 25 -32 87 -16 106 17 21 63 19
84 -4z"/>
<path d="M4073 523 c-18 -2 -33 -10 -33 -17 0 -10 13 -12 49 -8 l50 4 -20 -88
c-11 -49 -22 -101 -26 -116 -8 -38 -27 -52 -63 -44 -17 3 -30 2 -30 -2 0 -4
50 -19 110 -33 61 -14 110 -22 110 -18 0 4 -13 12 -30 18 -18 6 -30 17 -30 28
0 10 15 78 33 151 l33 132 -61 -2 c-33 0 -75 -3 -92 -5z"/>
<path d="M4633 508 c-104 -11 -101 -8 -84 -93 6 -32 9 -36 15 -20 17 46 23 50
95 59 40 4 75 6 78 2 3 -3 -27 -64 -66 -136 -39 -73 -71 -134 -71 -136 0 -2
13 -4 28 -4 27 0 31 6 67 98 21 53 53 127 72 164 18 37 33 70 33 73 0 7 -54 4
-167 -7z"/>
<path d="M4330 484 c-34 -24 -40 -34 -40 -72 0 -23 8 -40 24 -55 l24 -21 -29
-18 c-35 -22 -47 -62 -28 -97 22 -39 56 -52 123 -48 51 3 63 8 87 35 45 51 34
125 -21 144 -9 3 -4 13 13 31 56 55 23 108 -71 115 -43 2 -63 -1 -82 -14z
m112 -21 c22 -20 24 -66 2 -84 -13 -11 -22 -10 -52 6 -50 28 -61 49 -38 74 23
25 63 27 88 4z m6 -180 c30 -41 -2 -93 -57 -93 -33 0 -71 37 -71 69 0 13 10
35 21 47 21 22 23 22 58 8 20 -8 42 -22 49 -31z"/>
</g>
</svg>
